<?xml version="1.0" encoding="utf-8"?>
<svg version="1.1" xmlns:xlink="http://www.w3.org/1999/xlink" width="26px" height="24px" xmlns="http://www.w3.org/2000/svg">
  <g transform="matrix(1 0 0 1 -16 -613 )">
    <path d="M 23.7323988984375 12.7830445361328  C 24.6879022509766 11.9080903056641  25.2579205498047 10.6650518466797  25.2631127548828 9.33360585742188  C 25.2616415887197 8.83840596350641  25.1806700455358 8.34665427622524  25.0232896884766 7.87712629785156  L 25.0028015849609 7.76837095507813  L 22.8932286699219 2.66711409863281  C 22.4945787393337 1.65034032764792  21.5070202145347 0.987512961231628  20.41501025 1  L 5.75577290332031 1  C 4.65668952492451 0.943205543331151  3.64296486731445 1.59526973571048  3.24233178027344 2.62052470117188  L 0.992429396484375 7.79447224902344  L 0.972502614257812 7.89705308007813  C 0.81672705684064 8.36686971386587  0.737043971103823 8.85856459779086  0.7364684609375 9.35353263964844  C 0.742387405169169 10.6675701770466  1.29858713413726 11.9190195651882  2.26998890136719 12.803953625  L 2.27560206933594 21.7667968291016  C 2.29524820214844 23.0074496669922  3.30674301074219 24  4.54374729394531 24  L 4.57532141992187 23.9997193505859  L 4.57686504785156 24  L 21.4329602197266 24  L 21.4544306298828 23.9898962841797  C 22.6950834677734 23.9898962841797  23.7096655322266 22.9960829726563  23.7323988984375 21.7531848720703  L 23.7323988984375 12.7830445361328  Z M 2.26956791601563 9.35507626757813  C 2.26984092835874 9.02367527722181  2.32318676829671 8.69445655438764  2.42757888183594 8.37992678222656  L 2.45873202246094 8.28618668847656  L 2.46546785546875 8.25152532910156  L 4.64815240234375 3.23165954296875  L 4.65965943261719 3.20527759960938  L 4.67018413378906 3.17847467089844  C 4.82103830371094 2.79242829589844  5.20062951757813 2.53295911914063  5.61460146386719 2.53295911914063  L 5.67129457714844 2.53450274707031  L 5.71353374023438 3  L 20.41501025 3  L 20.4430761347656 2.53674800976563  L 20.4543024931641 2.53660769628906  C 20.9044794267578 2.53660769628906  21.3016118242188 2.80744356738281  21.4764623613281 3.2529896171875  L 23.5259742578125 8.20914583007812  L 23.5366392949219 8.26569860742188  L 23.5693360634766 8.36420987597656  C 23.6737901416 8.67464870679697  23.728077476635 8.99975689403466  23.7301536357422 9.32729103222656  C 23.7252421025391 10.5085845087891  23.0717277617188 11.5818242773437  22.0412884775391 12.1195668154297  C 21.5581654356055 12.3633973781625  21.0246572294739 12.4907069185965  20.4834910205078 12.4912995761719  L 20.4395679160156 12.4910189042969  L 20.3709467871094 12.4910189042969  C 19.4019515318063 12.4910067066525  18.4803664040843 12.0716903345576  17.8437533935547 11.3411592402344  L 16.6833690058594 10.0094325791016  L 15.5283171367188 11.3455094521484  C 14.8971151767578 12.0757840019531  13.9814653886719 12.4970530800781  12.9984574726563 12.5015436279297  C 12.0302729245372 12.5008551738109  11.1097556722648 12.0812286716706  10.4742109765625 11.3508419707031  L 9.31733483007813 10.0219218935547  L 8.16102000488281 11.3514032919922  C 7.58296165229533 12.0156904109218  6.76802939773073 12.427563348554  5.89034886816406 12.4990176933594  L 5.57194129296875 12.5058938398437  L 5.500232953125 12.5065954746094  C 4.98269786914063 12.5065954746094  4.46404014257813 12.3849298320312  4.00909201171875 12.1591397304688  C 2.94118476171875 11.6206955576172  2.27447944921875 10.5431055546875  2.26956791601563 9.35507626757813  Z M 22.1992994433594 16.1103965869141  L 22.1997204287109 21.7245576660156  C 22.1920023115234 22.1282855380859  21.8577375166016 22.4567968291016  21.4319779130859 22  L 4.54346662207031 22  C 4.14436961132812 22.4667602089844  3.81459536425781 22.1420378085938  3.808420875 21.7658145224609  L 3.804070640625 14.8070164824219  L 3.80491263378906 13.7353203193359  C 4.38059214144784 13.9479834384651  4.99106064384728 14.0507515852828  5.60463806152344 14.0382916376953  L 5.60463806152344 14.0437644921875  L 5.61614509179687 14.0437644921875  C 7.03592068879495 14.0437126418805  8.38604838606369 13.4285850841078  9.31775581542969 12.3572849326172  C 10.2442569049017 13.4216731969344  11.5859109074544 14.0332185211468  12.9970541806641 14.0343624111328  L 13.0231554521484 14.0343624111328  C 14.4309476994608 14.0279280839951  15.7671855353578 13.4130488980291  16.6878595537109 12.3480231875  C 17.6231793221552 13.4214742087199  18.980328692317 14.0333752523318  20.4040645410156 14.0235570380859  L 20.4202024326172 14.0235570380859  C 21.0269148407439 14.0311497693026  21.6299194014962 13.9279541952414  22.1995801152344 13.7190420917969  L 22.1995801152344 16.1103965869141  Z " fill-rule="nonzero" fill="#ffffff" stroke="none" transform="matrix(1 0 0 1 16 613 )" />
  </g>
</svg>