<?xml version="1.0" encoding="utf-8"?>
<svg version="1.1" xmlns:xlink="http://www.w3.org/1999/xlink" width="24px" height="22px" xmlns="http://www.w3.org/2000/svg">
  <g transform="matrix(1 0 0 1 -59 -614 )">
    <path d="M 23.5 12.21875  C 23.5 11.06875  22.925 9.775  22.0625 9.05625  C 21.2 4.16875  17.03125 0.574999999999999  12 0.574999999999999  C 6.96875 0.574999999999999  2.8 4.3125  1.9375 9.05625  C 1.075 9.775  0.5 11.06875  0.5 12.3625  C 0.5 14.0875  1.50625 16.1  3.0875 16.1  C 4.525 16.1  4.525 14.51875  4.525 12.3625  C 4.525 10.35  4.525 8.76875  3.51875 8.625  C 4.38125 4.74375  7.83125 1.86875  12 1.86875  C 16.16875 1.86875  19.61875 4.74375  20.48125 8.48125  C 19.475 8.76875  19.475 10.20625  19.475 12.21875  C 19.475 13.65625  19.475 14.6625  19.7625 15.38125  C 18.46875 17.39375  16.6 18.83125  14.3 19.40625  C 13.86875 18.83125  13.00625 18.4  12 18.4  C 10.5625 18.4  9.4125 19.11875  9.4125 19.98125  C 9.4125 20.84375  10.5625 21.5625  12 21.5625  C 13.4375 21.5625  14.5875 20.84375  14.5875 19.98125  C 16.8875 19.40625  18.9 17.825  20.19375 15.8125  C 20.3375 15.95625  20.625 15.95625  20.9125 15.95625  C 22.49375 15.95625  23.5 13.94375  23.5 12.21875  Z " fill-rule="nonzero" fill="#ffffff" stroke="none" transform="matrix(1 0 0 1 59 614 )" />
  </g>
</svg>