<?xml version="1.0" encoding="utf-8"?>
<svg version="1.1" xmlns:xlink="http://www.w3.org/1999/xlink" width="22px" height="21px" xmlns="http://www.w3.org/2000/svg">
  <g transform="matrix(1 0 0 1 -105 -613 )">
    <path d="M 6.96053475195312 13.3230379912109  L 6.8610811796875 17.0653606914063  L 10.2438126933594 15.6959951142578  L 11.0012181689453 15.3899116308594  L 11.7586236445312 15.6959951142578  L 15.1414470908203 17.0641884775391  L 15.0407293720703 13.32303796875  L 15.0203421855469 12.5821582851563  L 15.4844665078125 12.0046518242188  L 17.6533679902344 9.30140861425782  L 14.1634601826172 8.2443553203125  L 13.4889365097656 8.04036861230469  L 13.0885479726563 7.46274724121094  L 11.0012181914062 4.45222537890625  L 8.91524448925781 7.46274724121094  L 8.51485595214844 8.04036861230469  L 7.84028630175781 8.2443553203125  L 4.34782717871094 9.30271876074219  L 6.51679761621094 12.0046518466797  L 6.98092193847656 12.5821583076172  L 6.96053475195312 13.3230379912109  Z M 17.2427973935547 20.0937184697266  L 11.0012181689453 17.5690641728516  L 4.75975387695313 20.0937184697266  L 4.94204327441406 13.2681512089844  L 0.90133690234375 8.23539140722656  L 7.25508007421875 6.31122798339844  L 11.0012181689453 0.906258552734375  L 14.7486893876953 6.31122798339844  L 21.0986630976562 8.23539140722656  L 17.0591978720703 13.2681741865234  L 17.2427973935547 20.0937184697266  Z " fill-rule="nonzero" fill="#ffffff" stroke="none" transform="matrix(1 0 0 1 105 613 )" />
  </g>
</svg>