<?xml version="1.0" encoding="utf-8"?>
<svg version="1.1" xmlns:xlink="http://www.w3.org/1999/xlink" width="5px" height="5px" xmlns="http://www.w3.org/2000/svg">
  <g transform="matrix(1 0 0 1 -282 -42 )">
    <path d="M 284.5 42  C 285.9 42  287 43.1  287 44.5  C 287 45.9  285.9 47  284.5 47  C 283.1 47  282 45.9  282 44.5  C 282 43.1  283.1 42  284.5 42  Z " fill-rule="nonzero" fill="#ffffff" stroke="none" />
    <path d="M 284.5 42.5  C 285.62 42.5  286.5 43.38  286.5 44.5  C 286.5 45.62  285.62 46.5  284.5 46.5  C 283.38 46.5  282.5 45.62  282.5 44.5  C 282.5 43.38  283.38 42.5  284.5 42.5  Z " stroke-width="1" stroke="#555555" fill="none" />
  </g>
</svg>