<?xml version="1.0" encoding="utf-8"?>
<svg version="1.1" xmlns:xlink="http://www.w3.org/1999/xlink" width="10px" height="10px" xmlns="http://www.w3.org/2000/svg">
  <g transform="matrix(1 0 0 1 -335 -40 )">
    <path d="M 340 40  C 342.8 40  345 42.2  345 45  C 345 47.8  342.8 50  340 50  C 337.2 50  335 47.8  335 45  C 335 42.2  337.2 40  340 40  Z " fill-rule="nonzero" fill="#ffffff" stroke="none" />
    <path d="M 340 40.5  C 342.52 40.5  344.5 42.48  344.5 45  C 344.5 47.52  342.52 49.5  340 49.5  C 337.48 49.5  335.5 47.52  335.5 45  C 335.5 42.48  337.48 40.5  340 40.5  Z " stroke-width="1" stroke="#797979" fill="none" />
  </g>
</svg>