<?xml version="1.0" encoding="utf-8"?>
<svg version="1.1" xmlns:xlink="http://www.w3.org/1999/xlink" width="10px" height="10px" xmlns="http://www.w3.org/2000/svg">
  <g transform="matrix(1 0 0 1 -40 -10 )">
    <path d="M 45 10  C 47.8 10  50 12.2  50 15  C 50 17.8  47.8 20  45 20  C 42.2 20  40 17.8  40 15  C 40 12.2  42.2 10  45 10  Z " fill-rule="nonzero" fill="#000000" stroke="none" />
    <path d="M 45 10.5  C 47.52 10.5  49.5 12.48  49.5 15  C 49.5 17.52  47.52 19.5  45 19.5  C 42.48 19.5  40.5 17.52  40.5 15  C 40.5 12.48  42.48 10.5  45 10.5  Z " stroke-width="1" stroke="#797979" fill="none" />
  </g>
</svg>