<svg class="icon" viewBox="0 0 1024 1024" version="1.1" xmlns="http://www.w3.org/2000/svg" p-id="4302" height="128" width="128"><path d="M981.27 510.032L512 71.183 42.73 508.737c-9.062 8.415-9.71 23.302-1.295 32.364s23.302 9.709 32.364 1.294L512 133.321 950.201 543.69c4.531 3.883 9.71 5.825 15.535 5.825 5.825 0 12.298-2.589 16.829-7.12 8.414-9.062 7.767-23.302-1.295-32.363z m-144.988 9.061c-11.651 1.295-20.713 11.651-20.713 23.95v347.583H633.687V678.969c0-16.83-13.593-31.069-31.07-31.069H422.03c-17.477 0-31.07 13.593-31.07 31.069v211.657H209.079V543.042c0-12.298-9.062-22.654-20.713-23.949-13.592-1.294-24.596 9.71-24.596 22.655v363.118c0 17.476 14.24 31.069 31.07 31.069h211.009c16.829 0 31.069-13.593 31.069-31.07V693.21h151.46v211.657c0 17.476 13.593 31.069 31.07 31.069h211.01c17.476 0 31.068-13.593 31.068-31.07V541.749c-0.647-12.946-11.65-23.302-25.243-22.655zM680.29 192.87h135.28v120.392c0 11.65 8.414 22.654 20.712 23.949 13.592 1.294 24.596-9.71 24.596-22.655V178.63c0-17.476-13.593-31.07-31.069-31.07H678.995c-12.945 0-23.949 11.005-22.654 24.597 0.647 12.298 11.65 20.713 23.949 20.713z" p-id="4303"></path></svg>