<svg class="icon" viewBox="0 0 1024 1024" version="1.1" xmlns="http://www.w3.org/2000/svg" p-id="2744" height="128" width="128"><path d="M113.36704 144.078848c-11.067392 0-20.037632-8.964096-20.037632-20.037632l0-20.037632c0-11.073536 8.968192-20.035584 20.037632-20.035584l40.073216 0c66.387968 0 120.215552 53.825536 120.215552 120.219648L273.655808 444.6208l0 180.330496c0 33.202176 26.914816 60.110848 60.1088 60.110848l480.874496 0c33.19808 0 60.1088-26.908672 60.1088-60.110848L874.747904 324.401152c0-33.204224-26.916864-60.110848-60.1088-60.110848L393.875456 264.290304c-11.061248 0-20.037632-8.96-20.037632-20.035584l0-20.031488c0-11.077632 8.974336-20.037632 20.037632-20.037632l420.765696 0c66.392064 0 120.219648 53.827584 120.219648 120.213504l0 300.548096c0 66.390016-53.827584 120.215552-120.219648 120.215552L333.7728 745.162752c-66.392064 0-120.221696-53.825536-120.221696-120.215552L213.551104 204.187648c0-33.20832-26.916864-60.114944-60.1088-60.114944L113.36704 144.072704 113.36704 144.078848zM393.875456 584.87808c-11.061248 0-20.037632-8.964096-20.037632-20.037632l0-20.035584c0-11.077632 8.974336-20.037632 20.037632-20.037632l360.654848 0c11.067392 0 20.037632 8.96 20.037632 20.037632l0 20.035584c0 11.073536-8.97024 20.037632-20.037632 20.037632L393.875456 584.87808 393.875456 584.87808zM393.875456 424.585216c-11.061248 0-20.037632-8.96-20.037632-20.037632l0-20.035584c0-11.077632 8.974336-20.037632 20.037632-20.037632l360.654848 0c11.067392 0 20.037632 8.962048 20.037632 20.037632l0 20.035584c0 11.077632-8.97024 20.037632-20.037632 20.037632L393.875456 424.585216 393.875456 424.585216zM834.676736 805.277696c33.19808 0 60.114944 26.906624 60.114944 60.1088s-26.923008 60.110848-60.114944 60.110848c-33.193984 0-60.1088-26.906624-60.1088-60.110848S801.482752 805.277696 834.676736 805.277696L834.676736 805.277696zM263.63904 799.373312c38.729728 0 70.125568 31.40608 70.131712 70.127616 0 38.723584-31.401984 70.129664-70.131712 70.129664-38.735872 0-70.125568-31.404032-70.125568-70.129664C193.51552 830.779392 224.91136 799.373312 263.63904 799.373312L263.63904 799.373312zM263.63904 799.373312" p-id="2745"></path></svg>