<svg class="icon" viewBox="0 0 1024 1024" version="1.1" xmlns="http://www.w3.org/2000/svg" p-id="4139" height="128" width="128"><path d="M819.2 133.907692h-118.153846v-7.876923c0-39.384615-31.507692-74.830769-74.830769-74.830769h-236.307693C346.584615 51.2 315.076923 82.707692 315.076923 126.030769v11.815385H204.8c-43.323077 0-74.830769 35.446154-74.830769 74.830769v638.030769c0 19.692308 7.876923 39.384615 23.630769 55.138462 15.753846 15.753846 31.507692 23.630769 55.138462 23.630769H827.076923c43.323077 0 74.830769-35.446154 74.830769-74.830769V212.676923c-7.876923-43.323077-39.384615-78.769231-82.707692-78.769231zM374.153846 126.030769c0-7.876923 7.876923-15.753846 15.753846-15.753846H630.153846c7.876923 0 15.753846 7.876923 15.753846 15.753846v78.769231c0 7.876923-7.876923 15.753846-15.753846 15.753846H389.907692c-7.876923 0-15.753846-7.876923-15.753846-15.753846v-78.769231z m460.8 724.676923c0 7.876923-7.876923 15.753846-15.753846 15.753846H204.8c-3.938462 0-7.876923 0-11.815385-3.938461-3.938462-3.938462-3.938462-7.876923-3.938461-11.815385V212.676923c0-7.876923 7.876923-15.753846 15.753846-15.753846H315.076923v11.815385c0 39.384615 31.507692 74.830769 74.830769 74.830769H630.153846c39.384615 0 74.830769-31.507692 74.830769-74.830769v-15.753847h118.153847c7.876923 0 15.753846 7.876923 15.753846 15.753847v641.96923z" fill="#080405" p-id="4140"></path><path d="M720.738462 362.338462H295.384615c-15.753846 0-31.507692 11.815385-31.507692 31.507692s11.815385 31.507692 31.507692 31.507692h425.353847c15.753846 0 31.507692-11.815385 31.507692-31.507692s-15.753846-31.507692-31.507692-31.507692zM720.738462 508.061538H295.384615c-15.753846 0-31.507692 11.815385-31.507692 31.507693s11.815385 31.507692 31.507692 31.507692h425.353847c15.753846 0 31.507692-11.815385 31.507692-31.507692s-15.753846-31.507692-31.507692-31.507693zM606.523077 653.784615H295.384615c-15.753846 0-31.507692 11.815385-31.507692 31.507693s11.815385 31.507692 31.507692 31.507692h311.138462c15.753846 0 31.507692-11.815385 31.507692-31.507692s-15.753846-31.507692-31.507692-31.507693z" fill="#080405" p-id="4141"></path></svg>