<?xml version="1.0" encoding="utf-8"?>
<svg version="1.1" xmlns:xlink="http://www.w3.org/1999/xlink" width="20px" height="24px" xmlns="http://www.w3.org/2000/svg">
  <g transform="matrix(1 0 0 1 -15 -373 )">
    <path d="M 17.9725490196078 16.8954838574849  C 16.7137254901961 21.0374193413558  13.6366013208487 23.7987096774194  10.1398692673866 23.7987096774194  C 6.64313725490196 23.7987096774194  3.56601304457721 21.0374193413558  2.30718955614277 16.8954838574849  C 1.18823529411765 16.8954838574849  0.349019607843136 15.3767741665827  0.349019607843136 13.4438709677419  C 0.349019607843136 12.8916129167087  0.488888875229779 12.3393548252268  0.628758183593748 11.9251612768397  C 0.488888916207104 11.2348386827117  0.349019607843136 10.6825806316784  0.349019607843136 9.992258077999  C 0.349019607843136 4.60774194896674  4.68496730660233 0.3277419624496  10.1398692673866 0.327741922001011  C 15.594771228171 0.327741881552423  19.9307189269301 4.60774190851815  19.9307189679075 9.992258077999  C 19.9307189679075 10.5445161290323  19.9307189679075 11.2348387231603  19.6509803921569 11.9251612768397  C 19.7908496595435 12.3393548252268  19.9307189679075 12.8916128762601  19.9307189679075 13.4438709677419  C 19.9307189679075 15.3767742070313  19.091503281633 16.8954838574849  17.9725490196078 16.8954838574849  Z M 2.72679739928002 15.5148387096774  L 3.28627450980392 15.1006451612903  L 3.56601308555453 15.9290322580645  C 4.54509803921568 19.7948386961946  7.20261440640319 22.4180645296119  10.1398692673866 22.4180645296119  C 13.0771241283701 22.4180645296119  15.7346404955576 19.7948387366432  16.7137254901961 15.9290322580645  L 16.9934640659467 14.9625806586442  L 17.8326797522212 15.5148387096774  C 18.1124183279718 15.5148387096774  18.5320261711091 14.8245161155494  18.5320261301317 13.4438709677419  C 18.5320261301317 13.0296774193548  18.5320261301317 12.4774193683216  18.3921568627451 12.0632258199345  L 18.3921568627451 11.7870967741936  C 18.5320261301317 11.0967741800655  18.6718954384957 10.5445161290323  18.6718954384957 9.992258077999  C 18.6718954384957 5.43612904574093  14.8954248502604 1.70838711025706  10.2797385757506 1.70838711025706  C 5.66405230124081 1.70838711025706  1.88758171300552 5.43612904574093  1.88758171300552 9.992258077999  C 1.88758171300552 10.5445161290323  1.88758171300552 11.0967742205141  2.1673202477788 11.7870967741936  L 2.1673202477788 12.0632258199345  C 2.02745098039216 12.4774193683216  2.02745098039216 12.8916129167087  2.02745098039216 13.4438709677419  C 2.02745098039216 14.8245161155494  2.58692809091605 15.5148387096774  2.72679739928002 15.5148387096774  Z " fill-rule="nonzero" fill="#080405" stroke="none" transform="matrix(1 0 0 1 15 373 )" />
  </g>
</svg>