<?xml version="1.0" encoding="utf-8"?>
<svg version="1.1" xmlns:xlink="http://www.w3.org/1999/xlink" width="33px" height="28px" xmlns="http://www.w3.org/2000/svg">
  <g transform="matrix(1 0 0 1 -8 -378 )">
    <path d="M 32.8682558005882 26.1955555425521  L 32.8682558005882 27.7934222092188  L 0.0217441726812293 27.7934222092188  L 0.0217441726812293 26.1955555425521  C 0.0217441726812293 22.4672  2.48523254477425 19.2714666666667  6.04360465116279 18.0730666666667  L 10.0125581529002 16.7415111241146  L 10.2862790564022 17.0078222092187  C 12.0654650895485 18.872  14.2552325581395 19.8040888758854  16.4449999866347 19.8040888758854  C 18.6347674151299 19.8040888758854  20.9613953354719 18.7388444184375  22.6037209168673 17.0078222092187  L 22.8774418604651 16.7415111241146  L 26.8463953622025 18.0730666666667  C 30.404767468591 19.2714666666667  32.868255840684 22.6003555425521  32.8682558005882 26.1955555425521  Z M 1.52720930232558 26.4618666666667  L 1.39034885057458 26  L 31.4996511627907 26  L 31.4996511627907 26.1955555425521  C 31.4996511627907 23.1329777517708  29.4467441860465 20.3367110851042  26.4358139668536 19.2714666666667  L 23.424883707565 18.2062222092188  C 21.5088371825718 20.0704  19.0453488104787 21.1356444184375  16.5818604784816 21.1356444574479  C 14.1183721464844 21.1356444964583  11.6548837342955 20.0704  9.73883720930232 18.2062222092188  L 6.59104649826263 19.2714666666667  C 3.58011627906977 20.3367111241146  1.52720930232558 23.1329777907813  1.52720930232558 26.1955555425521  L 1.52720930232558 26.4618666666667  Z M 10.423139548249 7.15431112411458  L 10.423139548249 7.95324445744792  L 9.46511626570449 7.82008887588541  C 9.46511626570449 7.82008887588541  8.50709302325582 7.68693333333333  7.68593023255814 7.68693333333333  L 7.68593023255814 6.35537779078125  L 8.78081396685365 6.35537779078125  C 8.78081396685365 5.15697779078125  8.78081396685365 3.4259555815625  9.46511626570449 2.76017779078125  C 9.73883720930233 2.49386666666667  10.0125581128043 2.36071112411458  10.423139548249 2.36071112411458  C 11.2443023389467 2.36071112411458  12.4760465249932 2.36071112411458  13.160348823844 1.69493333333333  C 13.4340697674419 1.42862220921875  13.5709302191929 0.895999999999998  13.5709302191929 0.363377790781248  L 14.9395348970862 0.363377790781248  C 15.0763953488372 1.0291555815625  18.4979070034747 3.69226666666667  22.4668604651163 3.69226666666667  L 23.151162804063 3.69226666666667  L 23.151162804063 4.35804445744792  C 23.151162804063 5.02382224822916  23.4248837476608 5.8227555815625  23.5617441994118 6.35537779078125  L 24.9303488372093 6.22222220921875  L 25.0672092889603 7.55377779078125  L 22.7405814087141 7.68693333333333  L 22.6037209168673 7.28746666666666  C 22.6037209168673 7.28746666666666  22.0562790697674 6.08906666666666  21.9194186180164 5.02382220921875  C 19.1822093023256 5.02382220921875  16.1712790831327 3.55911108510416  14.6658139534884 2.22755554255208  C 14.5289535017374 2.49386666666666  14.3920930098905 2.62702220921875  14.2552325581395 2.76017779078125  C 13.160348823844 3.82542224822916  11.3811627906977 3.82542224822916  10.56 3.82542220921875  C 10.423139548249 4.22488887588541  10.2862790564022 5.6896  10.423139548249 7.15431112411458  Z " fill-rule="nonzero" fill="#080405" stroke="none" transform="matrix(1 0 0 1 8 378 )" />
  </g>
</svg>