<?xml version="1.0" encoding="utf-8"?>
<svg version="1.1" xmlns:xlink="http://www.w3.org/1999/xlink" width="12px" height="5px" xmlns="http://www.w3.org/2000/svg">
  <g transform="matrix(1 0 0 1 -19 -384 )">
    <path d="M 5.94266665273437 2.3875  C 5.9426666109375 3.57638890340169  4.65866665273437 4.61666666666667  3.08933334726563 4.61666666666667  C 1.52 4.61666666666667  0.235999999999999 3.57638890340169  0.235999999999999 2.3875  C 0.235999999999999 1.19861109659831  1.52 0.158333333333334  3.08933334726563 0.158333333333334  C 4.65866669453125 0.158333333333334  5.94266669453125 1.19861109659831  5.94266665273437 2.3875  Z M 4.516 2.3875  C 4.516 2.09027776326497  3.94533334726563 1.64444442993164  3.08933334726563 1.64444442993164  C 2.23333334726562 1.64444442993164  1.66266669453125 2.09027776326497  1.66266665273438 2.3875  C 1.6626666109375 2.68472223673503  2.23333330546875 3.13055557006836  3.08933334726563 3.13055557006836  C 3.9453333890625 3.13055557006836  4.516 2.68472223673503  4.516 2.3875  Z M 11.6493333472656 2.3875  C 11.6493333472656 3.57638890340169  10.3653333472656 4.61666666666667  8.796 4.61666666666667  C 7.22666665273437 4.61666666666667  5.94266665273437 3.57638890340169  5.94266665273437 2.3875  C 5.94266665273437 1.19861109659831  7.22666665273437 0.158333333333334  8.796 0.158333333333334  C 10.3653333472656 0.158333333333334  11.6493333472656 1.19861109659831  11.6493333472656 2.3875  Z M 10.2226666527344 2.3875  C 10.2226666527344 2.09027776326497  9.652 1.64444442993164  8.796 1.64444442993164  C 7.94 1.64444442993164  7.36933334726562 2.09027776326497  7.36933334726562 2.3875  C 7.36933334726562 2.68472223673503  7.94 3.13055557006836  8.796 3.13055557006836  C 9.652 3.13055557006836  10.2226666527344 2.68472223673503  10.2226666527344 2.3875  Z " fill-rule="nonzero" fill="#080405" stroke="none" transform="matrix(1 0 0 1 19 384 )" />
  </g>
</svg>