<svg class="icon" viewBox="0 0 1024 1024" version="1.1" xmlns="http://www.w3.org/2000/svg" p-id="9061" height="128" width="128"><path d="M430.1824 72.2944a113.41824 113.41824 0 0 1 157.696-0.28672l359.2192 346.112a60.8256 60.8256 0 0 1-42.1888 104.59136l-19.23072-0.02048v349.9008a113.43872 113.43872 0 0 1-108.9536 113.3568l-4.46464 0.08192H258.94912a113.41824 113.41824 0 0 1-113.41824-113.43872l-0.02048-349.9008H121.26208a62.976 62.976 0 0 1-62.8736-59.24864l-0.1024-3.70688c0-17.03936 6.90176-33.34144 19.12832-45.19936z m105.22624 54.1696a37.80608 37.80608 0 0 0-52.57216 0.1024L152.45312 447.0784h11.9808a56.7296 56.7296 0 0 1 56.60672 53.248l0.1024 3.4816v368.78336c0 20.8896 16.93696 37.82656 37.80608 37.82656h215.2448V667.93472a37.80608 37.80608 0 1 1 75.61216 0v242.44224h222.45376c19.8656 0 36.18816-15.36 37.6832-34.83648l0.12288-2.9696V503.808a56.7296 56.7296 0 0 1 56.7296-56.7296h1.37216z" p-id="9062"></path></svg>