<svg class="icon" viewBox="0 0 1164 1024" version="1.1" xmlns="http://www.w3.org/2000/svg" p-id="11039" height="128" width="128"><path d="M1090.393139 664.107033c-44.086449-63.582847-103.629503-111.357804-172.832933-138.933791 30.561921-21.604117 56.205832-50.058319 74.64837-83.606175 21.604117-38.641509 32.845283-82.903602 32.845283-127.692624 0-139.98765-108.37187-253.980103-241.685077-253.980103-18.969468 0-34.426072 15.456604-34.426072 34.426072s15.456604 34.426072 34.426072 34.426072c95.374271 0 173.008576 83.079245 173.008576 185.303602s-77.634305 185.303602-173.008576 185.303602c-18.969468 0-34.426072 15.456604-34.426072 34.426072v0.175643c0 18.969468 15.456604 34.426072 34.426072 34.426072 171.603431 0 311.064151 148.945455 311.064151 331.790052 0 18.969468 15.456604 34.426072 34.426072 34.426072s34.426072-15.456604 34.426072-34.426072c0-85.713894-25.292624-167.21235-72.891938-236.064494z m-354.799314-58.313551c-36.006861-25.468268-75.1753-45.667238-116.802744-60.069983 87.470326-53.219897 141.392796-147.891595 141.392796-250.642882C760.183877 133.313208 628.627101 1.580789 466.684048 1.580789 304.916638 1.580789 173.18422 133.137564 173.18422 295.080617c0 54.976329 15.456604 108.898799 44.613379 155.268611 24.590051 39.344082 58.313551 72.365009 98.008919 96.252487-42.330017 14.402744-82.201029 34.777358-118.559177 60.596913-39.871012 28.278559-74.824014 62.353345-104.332075 101.34614C32.14271 789.516295 0 886.295712 0 987.817496c0 18.969468 15.456604 34.426072 34.426072 34.426072s34.426072-15.456604 34.426072-34.426072c0-105.912864 41.276158-205.678216 116.275815-281.02916 74.824014-74.999657 173.886792-116.627101 278.745797-116.627101 3.337221 0.351286 7.025729 0 10.362951-0.702573l2.810291-0.702573c102.224357 2.107719 198.301201 43.208233 271.193139 116.627101 74.999657 75.1753 116.275815 174.940652 116.275815 281.02916 0 18.969468 15.456604 34.426072 34.426072 34.426072s34.426072-15.456604 34.426072-34.426072c0-101.521784-32.14271-198.125557-93.090909-279.272727-29.683705-38.992796-64.987993-73.243225-104.683362-101.346141zM466.859691 70.25729c123.828473 0 224.823328 100.819211 224.823328 224.823327 0 123.828473-100.819211 224.823328-224.823328 224.823328-123.828473 0-224.823328-100.819211-224.823327-224.823328 0.175643-124.004117 100.994854-224.823328 224.823327-224.823327z m0 0" p-id="11040"></path></svg>