<?xml version="1.0" encoding="utf-8"?>
<svg version="1.1" xmlns:xlink="http://www.w3.org/1999/xlink" width="16px" height="16px" xmlns="http://www.w3.org/2000/svg">
  <g transform="matrix(1 0 0 1 -340 -267 )">
    <path d="M 1.82123282926829 0.29106635135135  C 1.40500784303563 0.0747411410275002  0.757085278915583 0.0747411410275002  0.340860292682927 0.291066351351351  C 0.145255903818973 0.392836646473676  0.0343066001949537 0.534888912278744  0.0343066001949537 0.683557743243243  C 0.0343066001949537 0.832226574207744  0.145255903818973 0.974278840012811  0.340860292682927 1.07604913513514  L 13.3815343902439 7.99245208108108  L 0.340860292682927 14.908855027027  C 0.145195310687241 15.0107364671341  0.0342251314495858 15.1528915336083  0.0342251314495858 15.3016609324324  C 0.0342251314495858 15.4504303312565  0.145195310687244 15.5925853977307  0.34086029268293 15.6944668378378  C 0.756413694712098 15.9117305525808  1.40567942723913 15.9117305525808  1.82123282926829 15.6944668378378  L 15.466997804878 8.45664864864864  C 15.7527951972021 8.35599440018912  15.9245084505559 8.18070183656415  15.9210997560976 7.99308108108108  C 15.9258324624986 7.80527876986061  15.7537914357033 7.62965160045709  15.466997804878 7.52951351351351  L 1.82123282926829 0.29106635135135  Z " fill-rule="nonzero" fill="#7f7f7f" stroke="none" transform="matrix(1 0 0 1 340 267 )" />
  </g>
</svg>