<?xml version="1.0" encoding="utf-8"?>
<svg version="1.1" xmlns:xlink="http://www.w3.org/1999/xlink" width="40px" height="20px" xmlns="http://www.w3.org/2000/svg">
  <g transform="matrix(1 0 0 1 -48 -267 )">
    <path d="M 30.6592156442856 0.614115325331852  C 30.6586305334031 0.614115325331852  30.6580454225129 0.614115380346504  30.6574603116407 0.614115490375802  C 25.957494202634 0.628888237764667  21.9978716390021 4.12799535477879  21.4050462878094 8.79044725939505  L 18.6848618148488 8.79044725939505  C 18.0754063083957 4.1176411967217  14.0942411335918 0.622004656278643  9.38185824234642 0.622004656278643  C 4.20043519113484 0.622004656278643  6.18903757469444E-05 4.82237795703774  6.18903757469444E-05 10.0038010082493  C 6.18903757469444E-05 15.1852240594609  4.20043519113484 19.38559736022  9.38185824234642 19.38559736022  C 14.0942411335918 19.38559736022  18.0754063083957 15.8899608197769  18.6848618148488 11.2171547571036  L 21.4113576168653 11.2171547571036  C 22.0453520434535 15.838936007367  25.9941528517574 19.2830380017755  30.6592156442856 19.2830380017755  C 35.8144962892707 19.2830380017755  39.9936769825074 15.1038573085387  39.9936769825074 9.94857666355367  C 39.9936769825074 4.79329601856862  35.8144962892707 0.614115325331852  30.6592156442856 0.614115325331852  Z M 16.8703536021998 9.99275616865261  C 16.8808394707552 14.1118934096982  13.5547096339623 17.462023340393  9.43560346471127 17.4811526489459  C 9.41772163806626 17.4812807563689  9.3998394098992 17.4813448106968  9.38195712437206 17.4813448106968  C 5.24622994761948 17.4813448106968  1.89356064407876 14.1286755071561  1.89356064407876 9.9929483304035  C 1.89356064407876 5.85722115365091  5.24622994761948 2.50455185011019  9.38195712437206 2.50455185011019  C 13.5176092574924 2.50455185011019  16.870247476121 5.85710403689395  16.8703536021998 9.99275616865261  Z M 38.0959700624287 10.0400916015978  C 38.0959700624287 14.1486799034648  34.7660483719262 17.4797437068419  30.6574603116407 17.4811526489459  C 26.8914011352688 17.4652086623694  23.7267894833782 14.6469589467377  23.2763564986251 10.907899431714  C 23.2006168886994 10.3001545748428  23.2006168886994 9.68535776246241  23.2763564986251 9.0776129055912  C 23.759793934662 5.37148588844111  26.9173840997982 2.59903011672151  30.6549085775524 2.59903011672151  C 34.7644933582029 2.59903011672151  38.0959700624287 5.93050682094733  38.0959700624287 10.0400916015978  Z " fill-rule="nonzero" fill="#ffffff" stroke="none" transform="matrix(1 0 0 1 48 267 )" />
  </g>
</svg>