<svg class="icon" viewBox="0 0 1024 1024" version="1.1" xmlns="http://www.w3.org/2000/svg" p-id="20819" height="128" width="128"><path d="M957.6 868.8l-106.4-106.4c54.4-73.6 87.2-164.8 87.2-263.2 0-243.2-197.6-440.8-440.8-440.8s-440 198.4-440 441.6 197.6 440.8 440.8 440.8c98.4 0 189.6-32.8 263.2-87.2l106.4 106.4c12.8 12.8 28.8 18.4 45.6 18.4s32.8-6.4 45.6-18.4c23.2-25.6 23.2-66.4-1.6-91.2z m-459.2-56.8c-172 0-312.8-140-312.8-312.8 0-172 140-312.8 312.8-312.8 172 0 312.8 140 312.8 312.8-0.8 172.8-140.8 312.8-312.8 312.8z" p-id="20820"></path></svg>