<?xml version="1.0" encoding="utf-8"?>
<svg version="1.1" xmlns:xlink="http://www.w3.org/1999/xlink" width="30px" height="30px" xmlns="http://www.w3.org/2000/svg">
  <g transform="matrix(1 0 0 1 -133 -206 )">
    <path d="M 15.1427628865979 26.8541395203488  C 18.9629690721649 24.7882790406977  23.6065979381443 19.9361860465116  25.6651546391753 16.2152558284884  C 28.4072577448454 11.2574884011628  27.676206185567 5.0747907122093  24.127835064433 3.60874417151163  C 22.2051958762887 2.81693023255814  19.5317113530928 3.51051161337209  16.1047422680412 5.68948835755814  C 15.6824742139175 6.00651161337209  15.3604948453608 6.16279068313953  15.1414433118557 6.16279068313953  C 14.9197525902062 6.16279068313953  14.5964536082474 6.00204649709302  14.1715464046392 5.68353488372093  C 10.8461855798969 3.51200001453488  8.20305154639175 2.82139534883721  6.24742268041237 3.6132092877907  C 2.60931958762887 5.08520930232558  1.84659792525773 11.2604651162791  4.63620618556701 16.2048371947674  C 6.76074228092784 19.9704185755814  11.3634639046392 24.7972092732558  15.1427628865979 26.8541395203488  Z M 15.1467216494845 2.94939536337209  C 17.9416082474227 0.329860465116277  21.5995051546392 -0.603348837209304  25.0343917654639 0.815069781976745  C 30.4381031056701 3.0446511627907  31.4277938273196 11.4197209447674  27.9044948582474 17.7899534738372  C 25.4790927835052 22.1746976598837  20.0938556829897 27.7203720784884  15.6587216365979 29.8576744186047  L 14.620206185567 29.8561860610465  C 10.2312577190722 27.7278139534884  4.90144329896907 22.2193488662791  2.40874225515464 17.8018604651163  C -1.18185568298969 11.4346046511628  -0.145979381443299 3.0372092877907  5.35538145618557 0.810604665697674  C 8.83513403350516 -0.595906962209302  12.3887835309278 0.32390699127907  15.1467216494845 2.94939536337209  Z M 16.4742267912371 9.13953488372093  L 16.4742267912371 13.6046511627907  L 20.4329896778351 13.6046511627907  L 20.4329896778351 16.5813953633721  L 16.4742267912371 16.5813953633721  L 16.4742267912371 21.0465116424419  L 13.8350515592783 21.0465116424419  L 13.8350515592783 16.5813953633721  L 9.87628867268041 16.5813953633721  L 9.87628867268041 13.6046511627907  L 13.8350515592783 13.6046511627907  L 13.8350515592783 9.13953488372093  L 16.4742267912371 9.13953488372093  Z " fill-rule="nonzero" fill="#ffffff" stroke="none" transform="matrix(1 0 0 1 133 206 )" />
  </g>
</svg>