<?xml version="1.0" encoding="utf-8"?>
<svg version="1.1" xmlns:xlink="http://www.w3.org/1999/xlink" width="14px" height="13px" xmlns="http://www.w3.org/2000/svg">
  <g transform="matrix(1 0 0 1 -301 -217 )">
    <path d="M 7.63636363636364 11.9166666666667  C 7.63636363636364 11.3208333333333  7.06363636363636 10.8333333333333  6.36363636363636 10.8333333333333  L 1.27272727272727 10.8333333333333  C 0.572727272727272 10.8333333333333  0 11.3208333333333  0 11.9166666666667  C 0 12.5125  0.572727272727272 13  1.27272727272727 13  L 6.36363636363636 13  C 7.06363636363636 13  7.63636363636364 12.5125  7.63636363636364 11.9166666666667  Z M 14 6.5  C 14 5.90416666666667  13.4272727272727 5.41666666666667  12.7272727272727 5.41666666666667  L 1.27272727272727 5.41666666666667  C 0.572727272727272 5.41666666666667  0 5.90416666666667  0 6.5  C 0 7.09583333333333  0.572727272727272 7.58333333333333  1.27272727272727 7.58333333333333  L 12.7272727272727 7.58333333333333  C 13.4272727272727 7.58333333333333  14 7.09583333333333  14 6.5  Z M 14 1.08333333333333  C 14 0.487499999999999  13.4272727272727 0  12.7272727272727 0  L 1.27272727272727 0  C 0.572727272727272 0  0 0.487499999999999  0 1.08333333333333  C 0 1.67916666666667  0.572727272727272 2.16666666666667  1.27272727272727 2.16666666666667  L 12.7272727272727 2.16666666666667  C 13.4272727272727 2.16666666666667  14 1.67916666666667  14 1.08333333333333  Z " fill-rule="nonzero" fill="#ffffff" stroke="none" transform="matrix(1 0 0 1 301 217 )" />
  </g>
</svg>