<?xml version="1.0" encoding="utf-8"?>
<svg version="1.1" xmlns:xlink="http://www.w3.org/1999/xlink" width="30px" height="30px" xmlns="http://www.w3.org/2000/svg">
  <g transform="matrix(1 0 0 1 -293 -206 )">
    <path d="M 30 7.77777777777778  C 30 4.72222222222222  27.0652173913043 2.22222222222222  23.4782608695652 2.22222222222222  L 22.5652173913043 2.22222222222222  C 22.0434782608696 0.944444444444445  20.6086956521739 0  18.9130434782609 0  L 11.0869565217391 0  C 9.39130434782609 0  7.95652173913043 0.944444444444445  7.43478260869565 2.22222222222222  L 6.52173913043478 2.22222222222222  C 2.93478260869565 2.22222222222222  0 4.72222222222222  0 7.77777777777778  L 0 24.4444444444444  C 0 27.5  2.93478260869565 30  6.52173913043478 30  L 23.4782608695652 30  C 27.0652173913043 30  30 27.5  30 24.4444444444444  L 30 7.77777777777778  Z M 9.78260869565217 3.33333333333333  C 9.78260869565217 2.72222222222222  10.3695652173913 2.22222222222222  11.0869565217391 2.22222222222222  L 18.9130434782609 2.22222222222222  C 19.6304347826087 2.22222222222222  20.2173913043478 2.72222222222222  20.2173913043478 3.33333333333333  C 20.2173913043478 3.94444444444444  19.6304347826087 4.44444444444444  18.9130434782609 4.44444444444444  L 11.0869565217391 4.44444444444444  C 10.3695652173913 4.44444444444444  9.78260869565217 3.94444444444444  9.78260869565217 3.33333333333333  Z M 27 7.77777777777778  L 27 24.4444444444444  C 27.3913043478261 26.2777777777778  25.6304347826087 27.7777777777778  23.4782608695652 27.7777777777778  L 6.52173913043478 27.7777777777778  C 4.3695652173913 27.7777777777778  2.60869565217391 26.2777777777778  3 24.4444444444444  L 3 7.77777777777778  C 2.60869565217391 5.94444444444444  4.3695652173913 4.44444444444444  6.52173913043478 4.44444444444444  L 7.43478260869565 4.44444444444444  C 7.95652173913043 5.72222222222222  9.39130434782609 6.66666666666667  11.0869565217391 6.66666666666667  L 18.9130434782609 6.66666666666667  C 20.6086956521739 6.66666666666667  22.0434782608696 5.72222222222222  22.5652173913043 4.44444444444444  L 23.4782608695652 4.44444444444444  C 25.6304347826087 4.44444444444444  27.3913043478261 5.94444444444444  27 7.77777777777778  Z " fill-rule="nonzero" fill="#ffffff" stroke="none" transform="matrix(1 0 0 1 293 206 )" />
  </g>
</svg>