<svg class="icon" viewBox="0 0 1024 1024" version="1.1" xmlns="http://www.w3.org/2000/svg" p-id="20545" height="128" width="128"><path d="M168 566.19m-88 0a88 88 0 1 0 176 0 88 88 0 1 0-176 0Z" fill="#FFCEBF" p-id="20546"></path><path d="M168 670.19a104 104 0 1 1 104-104 104.11 104.11 0 0 1-104 104z m0-176a72 72 0 1 0 72 72 72.08 72.08 0 0 0-72-72z" fill="#222222" p-id="20547"></path><path d="M856 566.19m-88 0a88 88 0 1 0 176 0 88 88 0 1 0-176 0Z" fill="#FFCEBF" p-id="20548"></path><path d="M856 670.19a104 104 0 1 1 104-104 104.11 104.11 0 0 1-104 104z m0-176a72 72 0 1 0 72 72 72.08 72.08 0 0 0-72-72z" fill="#222222" p-id="20549"></path><path d="M862.72 416L864 585c0 207.09-157.6 375-352 375S160 792.13 160 585l1.28-169S144 80 512 80s350.72 336 350.72 336z" fill="#FFCEBF" p-id="20550"></path><path d="M512 976a347.31 347.31 0 0 1-143.59-30.88 366.42 366.42 0 0 1-117-84 392.06 392.06 0 0 1-78.62-124.22A409.77 409.77 0 0 1 144 585v-0.12l1.27-168.62c-0.2-4.83-1.23-39.79 8.53-86.21 9.53-45.38 31.67-110.8 83-164.81C300.6 98.07 393.21 64 512 64s211.4 34.07 275.23 101.28c51.3 54 73.44 119.43 83 164.81 9.76 46.42 8.73 81.38 8.53 86.21L880 585a409.77 409.77 0 0 1-28.79 151.9 392.06 392.06 0 0 1-78.64 124.23 366.42 366.42 0 0 1-117 84A347.31 347.31 0 0 1 512 976zM176 585.1C176 783 326.75 944 512 944s336-161 336-358.9l-1.28-169.45v-0.46c0-0.82 1.47-34.71-8.08-79.56-8.76-41.1-28.86-100.23-74.86-148.54C706.26 126.65 621.54 96 512 96s-194.47 30.72-252 91.32c-88.56 93.22-82.78 226.52-82.72 227.86v0.47z" fill="#222222" p-id="20551"></path><path d="M192 640a56 32 0 1 0 112 0 56 32 0 1 0-112 0Z" fill="#FFA096" p-id="20552"></path><path d="M720 640a56 32 0 1 0 112 0 56 32 0 1 0-112 0Z" fill="#FFA096" p-id="20553"></path><path d="M512 64c-352 0-352 192-352 400 0 0 64-128 160-176 112 64 272 64 384 0 96 48 160 176 160 176 0-208 0-400-352-400z" fill="#644B46" p-id="20554"></path><path d="M864 480a16 16 0 0 1-14.31-8.84c-0.6-1.2-59.48-117.22-145.51-165C649 335.78 581.12 352 512 352s-137-16.22-192.18-45.82c-86 47.76-144.91 163.78-145.51 165A16 16 0 0 1 144 464c0-107.17 0-208.4 46.25-286.18 25.37-42.66 62-73.83 111.94-95.27C356.34 59.3 425 48 512 48s155.66 11.3 209.81 34.55c50 21.44 86.57 52.61 111.94 95.27C880 255.6 880 356.83 880 464a16 16 0 0 1-16 16zM704 272a16 16 0 0 1 7.16 1.69C771.42 303.82 819 362.54 847.7 405.43c-1.25-80.43-7.7-154.57-41.45-211.25C759.93 116.28 666.43 80 512 80s-247.93 36.28-294.25 114.18c-33.7 56.68-40.2 130.79-41.45 211.25 28.75-42.89 76.28-101.61 136.54-131.74a16 16 0 0 1 15.1 0.42c106.65 60.94 261.47 60.94 368.12 0A16.06 16.06 0 0 1 704 272zM768 512h-28.23a48 48 0 0 0-71.54 0H640a16 16 0 0 0 0 32h16a48 48 0 0 0 96 0h16a16 16 0 0 0 0-32zM384 512h-28.23a48 48 0 0 0-71.54 0H256a16 16 0 0 0 0 32h16a48 48 0 0 0 96 0h16a16 16 0 0 0 0-32zM512 848c-87.23 0-131.77-16.32-133.62-17a16 16 0 0 1 11.19-30c0.62 0.23 41.93 15 122.43 15 80.71 0 122-14.85 122.43-15a16 16 0 1 1 11.19 30c-1.85 0.68-46.39 17-133.62 17z" fill="#222222" p-id="20555"></path><path d="M320 728c-97.05 0-176-79-176-176s79-176 176-176 176 79 176 176-78.95 176-176 176z m0-320c-79.4 0-144 64.6-144 144s64.6 144 144 144 144-64.6 144-144-64.6-144-144-144zM704 728c-97 0-176-79-176-176s79-176 176-176 176 79 176 176-78.95 176-176 176z m0-320c-79.4 0-144 64.6-144 144s64.6 144 144 144 144-64.6 144-144-64.6-144-144-144z" fill="#222222" p-id="20556"></path></svg>