<svg class="icon" viewBox="0 0 1024 1024" version="1.1" xmlns="http://www.w3.org/2000/svg" p-id="18786" height="128" width="128"><path d="M960 832S800 960 512 960 64 832 64 832s64-32 64-112V464h768v256c0 80 64 112 64 112z" fill="#AA6E50" p-id="18787"></path><path d="M512 976a924 924 0 0 1-194.88-20.36 813.52 813.52 0 0 1-143.33-44.89C96.63 878.26 55.71 845.86 54 844.49a16 16 0 0 1 2.84-26.8c0.08 0 14.23-7.39 28-23.25C102.87 773.73 112 748.69 112 720V464a16 16 0 0 1 16-16h768a16 16 0 0 1 16 16v256c0 69.31 54.6 97.41 55.16 97.69a16 16 0 0 1 2.84 26.8c-1.71 1.37-42.63 33.77-119.79 66.26a813.52 813.52 0 0 1-143.33 44.89A924 924 0 0 1 512 976zM92 832.07c18.4 12 50.64 30.93 95.52 49.72C255.26 910.17 366.57 944 512 944c146.1 0 257.81-34.12 325.79-62.75 44.38-18.68 76.1-37.33 94.25-49.16a147.3 147.3 0 0 1-16-15.46c-16.44-18.5-36-50.28-36-96.63V480H144v240c0 46.35-19.6 78.13-36 96.63a147.87 147.87 0 0 1-16 15.44z" fill="#222222" p-id="18788"></path><path d="M168 566.19m-88 0a88 88 0 1 0 176 0 88 88 0 1 0-176 0Z" fill="#FFCEBF" p-id="18789"></path><path d="M168 670.19a104 104 0 1 1 104-104 104.11 104.11 0 0 1-104 104z m0-176a72 72 0 1 0 72 72 72.08 72.08 0 0 0-72-72z" fill="#222222" p-id="18790"></path><path d="M856 566.19m-88 0a88 88 0 1 0 176 0 88 88 0 1 0-176 0Z" fill="#FFCEBF" p-id="18791"></path><path d="M856 670.19a104 104 0 1 1 104-104 104.11 104.11 0 0 1-104 104z m0-176a72 72 0 1 0 72 72 72.08 72.08 0 0 0-72-72z" fill="#222222" p-id="18792"></path><path d="M862.72 416L864 585c0 207.09-157.6 375-352 375S160 792.13 160 585l1.28-169S176 96 512 96s350.72 320 350.72 320z" fill="#FFCEBF" p-id="18793"></path><path d="M512 976a347.31 347.31 0 0 1-143.59-30.88 366.42 366.42 0 0 1-117-84 392.06 392.06 0 0 1-78.62-124.22A409.77 409.77 0 0 1 144 585v-0.12l1.28-169.35v-0.31c0.16-3.42 4.4-84.79 51.45-167.19 27.87-48.8 65-87.72 110.31-115.69C363.39 97.62 432.35 80 512 80s148.61 17.62 205 52.38c45.33 28 82.44 66.89 110.31 115.69 47 82.4 51.29 163.77 51.45 167.19v0.62L880 585a409.77 409.77 0 0 1-28.79 151.9 392.06 392.06 0 0 1-78.64 124.23 366.42 366.42 0 0 1-117 84A347.31 347.31 0 0 1 512 976zM176 585.11C176 783 326.75 944 512 944s336-161 336-358.89l-1.27-168.61c-0.3-5-5.49-80-47.84-153.58C741.24 162.78 644.71 112 512 112s-229.24 50.78-286.89 150.92c-42.35 73.58-47.54 148.58-47.84 153.58z" fill="#222222" p-id="18794"></path><path d="M192 654.19a56 32 0 1 0 112 0 56 32 0 1 0-112 0Z" fill="#FFA096" p-id="18795"></path><path d="M720 654.19a56 32 0 1 0 112 0 56 32 0 1 0-112 0Z" fill="#FFA096" p-id="18796"></path><path d="M896 464c0-231-153.48-400-384-400S128 233 128 464c0 0 464-16 560-160 112 144 208 160 208 160z" fill="#AA6E50" p-id="18797"></path><path d="M896 480a15.65 15.65 0 0 1-2.63-0.22c-4-0.67-96.2-17.39-205.25-150-49.63 55.08-154.87 96.75-313.41 124C247.11 475.7 129.72 480 128.55 480A16 16 0 0 1 112 464c0-58.87 9.62-114.56 28.59-165.52 18.74-50.34 46.11-94.78 81.33-132.07a366.43 366.43 0 0 1 126.69-87.16C398.49 58.51 453.46 48 512 48s113.51 10.51 163.39 31.25a366.43 366.43 0 0 1 126.69 87.16c35.22 37.29 62.59 81.73 81.33 132.07 19 51 28.59 106.65 28.59 165.52a16 16 0 0 1-16 16zM512 80c-211.26 0-360.4 150.13-367.72 367.21 36.6-2 128-8.28 225.34-25 162.85-28 268.34-71.95 305.07-127a16 16 0 0 1 25.94-0.95c77.83 100.07 146.79 136 178.9 148.19C870.18 227.91 721.69 80 512 80z" fill="#222222" p-id="18798"></path><path d="M353.94 503.43l-13.25 13.25a48.16 48.16 0 0 0-4.69-1.94V496a16 16 0 0 0-32 0v18.74a48.16 48.16 0 0 0-4.69 1.94l-13.25-13.25a16 16 0 0 0-22.63 22.63l13.25 13.25a48 48 0 1 0 86.64 0l13.25-13.25a16 16 0 0 0-22.63-22.63zM760.57 503.43a16 16 0 0 0-22.63 0l-13.25 13.25a48.16 48.16 0 0 0-4.69-1.94V496a16 16 0 0 0-32 0v18.74a48.16 48.16 0 0 0-4.69 1.94l-13.25-13.25a16 16 0 1 0-22.63 22.63l13.25 13.25a48 48 0 1 0 86.64 0l13.25-13.25a16 16 0 0 0 0-22.63zM512 848c-67 0-101.71-17-103.16-17.69a16 16 0 0 1 14.24-28.66c0.7 0.35 30.68 14.35 88.92 14.35 58.65 0 88.64-14.21 88.93-14.35a16 16 0 0 1 14.23 28.66C613.71 831 579 848 512 848z" fill="#222222" p-id="18799"></path><path d="M316 688c-45.54 0-88.44-15.55-120.82-43.77C162.17 615.47 144 577 144 536c0-25.18 7.17-45.1 21.32-59.23 29-28.94 80.8-28.86 140.81-28.78h19.74c60-0.08 111.83-0.16 140.81 28.78C480.83 490.92 488 510.84 488 536c0 41-18.17 79.45-51.18 108.23C404.44 672.47 361.54 688 316 688z m-19.5-208c-48.78 0-90.17 1.06-108.57 19.43-8 8-11.93 20-11.93 36.59 0 66.17 62.8 120 140 120s140-53.83 140-120c0-16.6-3.9-28.57-11.93-36.59-19.59-19.56-65.26-19.5-118.16-19.42H296.5zM708 688c-45.54 0-88.44-15.55-120.82-43.77C554.17 615.47 536 577 536 536c0-25.18 7.17-45.1 21.32-59.23 29-28.94 80.78-28.86 140.81-28.78h19.74c60-0.08 111.83-0.16 140.81 28.78C872.83 490.92 880 510.84 880 536c0 41-18.17 79.45-51.18 108.23C796.44 672.47 753.54 688 708 688z m-19.5-208c-48.78 0-90.17 1.06-108.57 19.43-8 8-11.93 20-11.93 36.59 0 66.17 62.8 120 140 120s140-53.83 140-120c0-16.6-3.9-28.57-11.93-36.59-19.59-19.56-65.26-19.5-118.16-19.42H688.5z" fill="#222222" p-id="18800"></path></svg>