<svg class="icon" viewBox="0 0 1024 1024" version="1.1" xmlns="http://www.w3.org/2000/svg" p-id="2373" height="128" width="128"><path d="M879.358227 793.020348 743.99119 666.456814c37.216623-53.892421 59.010999-119.123075 59.010999-189.418071 0-185.131441-151.051251-335.217714-337.361541-335.217714-186.308243 0-337.361541 150.086274-337.361541 335.217714s151.053298 335.217714 337.361541 335.217714c78.106916 0 150.007479-26.38902 207.188806-70.668503l135.423319 126.581953c20.843724 19.507286 53.717436 18.525935 73.355705-2.223644C901.273353 845.182358 900.256186 812.550147 879.358227 793.020348zM206.295971 477.038744c0-142.531204 116.115578-258.057357 259.344676-258.057357s259.343653 115.527177 259.343653 258.057357c0 142.518924-116.115578 258.057357-259.343653 258.057357S206.295971 619.557668 206.295971 477.038744z" p-id="2374"></path></svg>