<?xml version="1.0" encoding="utf-8"?>
<svg version="1.1" xmlns:xlink="http://www.w3.org/1999/xlink" width="10px" height="19px" xmlns="http://www.w3.org/2000/svg">
  <g transform="matrix(1 0 0 1 -15 -43 )">
    <path d="M 9.81818181152344 17.9659090820312  C 9.76136362304687 18.0227272705078  9.64772727050781 18.0227272705078  9.59090908203125 18.0227272705078  C 9.53409089355469 18.0227272705078  9.42045454101563 18.0227272705078  9.36363635253906 17.9659090820312  L 0.84090908203125 9.44318181152344  C 0.784090893554688 9.38636362304688  0.784090893554688 9.32954545898438  0.78409091796875 9.21590908203125  C 0.784090942382813 9.10227270507812  0.840909106445312 9.04545454101562  0.84090908203125 8.98863635253906  L 9.36363635253906 0.465909082031249  C 9.47727270507812 0.352272729492185  9.64772727050781 0.352272729492185  9.76136364746094 0.465909082031249  C 9.87500002441407 0.579545434570312  9.875 0.75  9.76136364746094 0.863636352539061  L 1.46590908203125 9.21590908203125  L 9.81818181152344 17.5681818115234  C 9.9318181640625 17.6818181640625  9.9318181640625 17.8522727294922  9.81818181152344 17.9659090820312  Z " fill-rule="nonzero" fill="#ffffff" stroke="none" transform="matrix(1 0 0 1 15 43 )" />
  </g>
</svg>