<?xml version="1.0" encoding="utf-8"?>
<svg version="1.1" xmlns:xlink="http://www.w3.org/1999/xlink" width="366px" height="162px" xmlns="http://www.w3.org/2000/svg">
  <defs>
    <filter x="8px" y="112px" width="366px" height="162px" filterUnits="userSpaceOnUse" id="filter42">
      <feOffset dx="5" dy="5" in="SourceAlpha" result="shadowOffsetInner" />
      <feGaussianBlur stdDeviation="2.5" in="shadowOffsetInner" result="shadowGaussian" />
      <feComposite in2="shadowGaussian" operator="atop" in="SourceAlpha" result="shadowComposite" />
      <feColorMatrix type="matrix" values="0 0 0 0 0  0 0 0 0 0  0 0 0 0 0  0 0 0 0.349019607843137 0  " in="shadowComposite" />
    </filter>
    <g id="widget43">
      <path d="M 8.5 117  A 4.5 4.5 0 0 1 13 112.5 L 359 112.5  A 4.5 4.5 0 0 1 363.5 117 L 363.5 259  A 4.5 4.5 0 0 1 359 263.5 L 13 263.5  A 4.5 4.5 0 0 1 8.5 259 L 8.5 117  Z " fill-rule="nonzero" fill="#ffffff" stroke="none" fill-opacity="0.996078431372549" />
      <path d="M 8.5 117  A 4.5 4.5 0 0 1 13 112.5 L 359 112.5  A 4.5 4.5 0 0 1 363.5 117 L 363.5 259  A 4.5 4.5 0 0 1 359 263.5 L 13 263.5  A 4.5 4.5 0 0 1 8.5 259 L 8.5 117  Z " stroke-width="1" stroke="#797979" fill="none" />
    </g>
  </defs>
  <g transform="matrix(1 0 0 1 -8 -112 )">
    <use xlink:href="#widget43" filter="url(#filter42)" />
    <use xlink:href="#widget43" />
  </g>
</svg>