<?xml version="1.0" encoding="utf-8"?>
<svg version="1.1" xmlns:xlink="http://www.w3.org/1999/xlink" width="227px" height="86px" xmlns="http://www.w3.org/2000/svg">
  <defs>
    <mask fill="white" id="clip38">
      <path d="M 217 0  L 14.4666666666667 0  L 11.5733333333333 0.506666666666664  L 0 38  L 11.5733333333333 75.4933333333333  L 14.4666666666667 76  L 217 76  L 217 0  Z " fill-rule="evenodd" />
    </mask>
    <filter x="78px" y="186px" width="227px" height="86px" filterUnits="userSpaceOnUse" id="filter39">
      <feOffset dx="5" dy="5" in="SourceAlpha" result="shadowOffsetInner" />
      <feGaussianBlur stdDeviation="2.5" in="shadowOffsetInner" result="shadowGaussian" />
      <feComposite in2="shadowGaussian" operator="atop" in="SourceAlpha" result="shadowComposite" />
      <feColorMatrix type="matrix" values="0 0 0 0 0  0 0 0 0 0  0 0 0 0 0  0 0 0 0.349019607843137 0  " in="shadowComposite" />
    </filter>
    <g id="widget40">
      <path d="M 217 0  L 14.4666666666667 0  L 11.5733333333333 0.506666666666664  L 0 38  L 11.5733333333333 75.4933333333333  L 14.4666666666667 76  L 217 76  L 217 0  Z " fill-rule="nonzero" fill="#ffffff" stroke="none" transform="matrix(1 0 0 1 78 186 )" />
      <path d="M 217 0  L 14.4666666666667 0  L 11.5733333333333 0.506666666666664  L 0 38  L 11.5733333333333 75.4933333333333  L 14.4666666666667 76  L 217 76  L 217 0  Z " stroke-width="2" stroke="#d7d7d7" fill="none" transform="matrix(1 0 0 1 78 186 )" mask="url(#clip38)" />
    </g>
  </defs>
  <g transform="matrix(1 0 0 1 -78 -186 )">
    <use xlink:href="#widget40" filter="url(#filter39)" />
    <use xlink:href="#widget40" />
  </g>
</svg>