<?xml version="1.0" encoding="utf-8"?>
<svg version="1.1" xmlns:xlink="http://www.w3.org/1999/xlink" width="85px" height="34px" xmlns="http://www.w3.org/2000/svg">
  <defs>
    <mask fill="white" id="clip41">
      <path d="M 0 0  L 79.3333333333333 0  L 80.4666666666667 0.226666666666665  L 85 17  L 80.4666666666667 33.7733333333333  L 79.3333333333333 34  L 0 34  L 0 0  Z " fill-rule="evenodd" />
    </mask>
  </defs>
  <g transform="matrix(1 0 0 1 -210 -280 )">
    <path d="M 0 0  L 79.3333333333333 0  L 80.4666666666667 0.226666666666665  L 85 17  L 80.4666666666667 33.7733333333333  L 79.3333333333333 34  L 0 34  L 0 0  Z " fill-rule="nonzero" fill="#02a7f0" stroke="none" fill-opacity="0.627450980392157" transform="matrix(1 0 0 1 210 280 )" />
    <path d="M 0 0  L 79.3333333333333 0  L 80.4666666666667 0.226666666666665  L 85 17  L 80.4666666666667 33.7733333333333  L 79.3333333333333 34  L 0 34  L 0 0  Z " stroke-width="2" stroke="#d7d7d7" fill="none" transform="matrix(1 0 0 1 210 280 )" mask="url(#clip41)" />
  </g>
</svg>