<?xml version="1.0" encoding="utf-8"?>
<svg version="1.1" xmlns:xlink="http://www.w3.org/1999/xlink" width="10px" height="10px" xmlns="http://www.w3.org/2000/svg">
  <g transform="matrix(1 0 0 1 -290 -39 )">
    <path d="M 295 39  C 297.8 39  300 41.2  300 44  C 300 46.8  297.8 49  295 49  C 292.2 49  290 46.8  290 44  C 290 41.2  292.2 39  295 39  Z " fill-rule="nonzero" fill="#f2f2f2" stroke="none" />
    <path d="M 295 39.5  C 297.52 39.5  299.5 41.48  299.5 44  C 299.5 46.52  297.52 48.5  295 48.5  C 292.48 48.5  290.5 46.52  290.5 44  C 290.5 41.48  292.48 39.5  295 39.5  Z " stroke-width="1" stroke="#555555" fill="none" />
  </g>
</svg>