<?xml version="1.0" encoding="utf-8"?>
<svg version="1.1" xmlns:xlink="http://www.w3.org/1999/xlink" width="5px" height="5px" xmlns="http://www.w3.org/2000/svg">
  <g transform="matrix(1 0 0 1 -282 -41 )">
    <path d="M 284.5 41  C 285.9 41  287 42.1  287 43.5  C 287 44.9  285.9 46  284.5 46  C 283.1 46  282 44.9  282 43.5  C 282 42.1  283.1 41  284.5 41  Z " fill-rule="nonzero" fill="#f2f2f2" stroke="none" />
    <path d="M 284.5 41.5  C 285.62 41.5  286.5 42.38  286.5 43.5  C 286.5 44.62  285.62 45.5  284.5 45.5  C 283.38 45.5  282.5 44.62  282.5 43.5  C 282.5 42.38  283.38 41.5  284.5 41.5  Z " stroke-width="1" stroke="#555555" fill="none" />
  </g>
</svg>