<?xml version="1.0" encoding="utf-8"?>
<svg version="1.1" xmlns:xlink="http://www.w3.org/1999/xlink" width="18px" height="25px" xmlns="http://www.w3.org/2000/svg">
  <g transform="matrix(1 0 0 1 -8 -31 )">
    <path d="M 17.6907216494845 1.50300601202405  C 17.8969072164948 1.67000668002672  18 1.86205744822979  18 2.07915831663327  C 18 2.29625918503674  17.8969072164948 2.48830995323981  17.6907216494845 2.65531062124249  L 5.5360824742268 12.5  L 17.6907216494845 22.3446893787575  C 17.8969072164948 22.5116900467602  18 22.7037408149633  18 22.9208416833667  C 18 23.1379425517702  17.8969072164948 23.3299933199733  17.6907216494845 23.496993987976  L 16.1443298969072 24.749498997996  C 15.9381443298969 24.9164996659987  15.7010309278351 25  15.4329896907216 25  C 15.1649484536083 25  14.9278350515464 24.9164996659987  14.7216494845361 24.749498997996  L 0.309278350515464 13.0761523046092  C 0.103092783505155 12.9091516366065  0 12.7171008684035  0 12.5  C 0 12.2828991315965  0.103092783505155 12.0908483633935  0.309278350515464 11.9238476953908  L 14.7216494845361 0.250501002004008  C 14.9278350515464 0.0835003340013352  15.1649484536083 0  15.4329896907216 0  C 15.7010309278351 0  15.9381443298969 0.0835003340013352  16.1443298969072 0.250501002004008  L 17.6907216494845 1.50300601202405  Z " fill-rule="nonzero" fill="#333333" stroke="none" transform="matrix(1 0 0 1 8 31 )" />
  </g>
</svg>