<?xml version="1.0" encoding="utf-8"?>
<svg version="1.1" xmlns:xlink="http://www.w3.org/1999/xlink" width="29px" height="31px" xmlns="http://www.w3.org/2000/svg">
  <g transform="matrix(1 0 0 1 -28 -74 )">
    <path d="M 17.78515625 19.01171875  C 19.3130008012821 17.3785056089744  20.0769230769231 15.4130608974359  20.0769230769231 13.1153846153846  C 20.0769230769231 10.8177083333333  19.3130008012821 8.85226362179487  17.78515625 7.21905048076923  C 16.2573116987179 5.58583733974359  14.4186698717949 4.76923076923077  12.2692307692308 4.76923076923077  C 10.1197916666667 4.76923076923077  8.28114983974359 5.58583733974359  6.75330528846154 7.21905048076923  C 5.22546073717949 8.85226362179487  4.46153846153846 10.8177083333333  4.46153846153846 13.1153846153846  C 4.46153846153846 15.4130608974359  5.22546073717949 17.3785056089744  6.75330528846154 19.01171875  C 8.28114983974359 20.6449318910256  10.1197916666667 21.4615384615385  12.2692307692308 21.4615384615385  C 14.4186698717949 21.4615384615385  16.2573116987179 20.6449318910256  17.78515625 19.01171875  Z M 28.3551682692308 26.9387019230769  C 28.7850560897436 27.3982371794872  29 27.9571314102564  29 28.6153846153846  C 29 29.261217948718  28.7792467948718 29.8201121794872  28.3377403846154 30.2920673076923  C 27.896233974359 30.7640224358974  27.3733974358974 31  26.7692307692308 31  C 26.1418269230769 31  25.6189903846154 30.7640224358974  25.2007211538462 30.2920673076923  L 19.2229567307692 23.9206730769231  C 17.1432291666667 25.4607371794872  14.8253205128205 26.2307692307692  12.2692307692308 26.2307692307692  C 10.6077724358974 26.2307692307692  9.01893028846154 25.8861177884615  7.50270432692308 25.1968149038462  C 5.98647836538462 24.5075120192308  4.67938701923077 23.5760216346154  3.58143028846154 22.40234375  C 2.48347355769231 21.2286658653846  1.61207932692308 19.8314302884615  0.967247596153846 18.2106370192308  C 0.322415865384615 16.58984375  0 14.8914262820513  0 13.1153846153846  C 0 11.3393429487179  0.322415865384615 9.64092548076923  0.967247596153846 8.02013221153846  C 1.61207932692308 6.39933894230769  2.48347355769231 5.00210336538462  3.58143028846154 3.82842548076923  C 4.67938701923077 2.65474759615385  5.98647836538462 1.72325721153846  7.50270432692308 1.03395432692308  C 9.01893028846154 0.344651442307692  10.6077724358974 0  12.2692307692308 0  C 13.9306891025641 0  15.51953125 0.344651442307692  17.0357572115385 1.03395432692308  C 18.5519831730769 1.72325721153846  19.8590745192308 2.65474759615385  20.95703125 3.82842548076923  C 22.0549879807692 5.00210336538462  22.9263822115385 6.39933894230769  23.5712139423077 8.02013221153846  C 24.2160456730769 9.64092548076923  24.5384615384615 11.3393429487179  24.5384615384615 13.1153846153846  C 24.5384615384615 15.8477564102564  23.818108974359 18.3255208333333  22.3774038461538 20.5486778846154  L 28.3551682692308 26.9387019230769  Z " fill-rule="nonzero" fill="#7f7f7f" stroke="none" transform="matrix(1 0 0 1 28 74 )" />
  </g>
</svg>