<?xml version="1.0" encoding="utf-8"?>
<svg version="1.1" xmlns:xlink="http://www.w3.org/1999/xlink" width="279px" height="35px" xmlns="http://www.w3.org/2000/svg">
  <g transform="matrix(1 0 0 1 -28 -152 )">
    <path d="M 29 162  A 9 9 0 0 1 38 153 L 297 153  A 9 9 0 0 1 306 162 L 306 177  A 9 9 0 0 1 297 186 L 38 186  A 9 9 0 0 1 29 177 L 29 162  Z " fill-rule="nonzero" fill="#ffffff" stroke="none" />
    <path d="M 28.5 162  A 9.5 9.5 0 0 1 38 152.5 L 297 152.5  A 9.5 9.5 0 0 1 306.5 162 L 306.5 177  A 9.5 9.5 0 0 1 297 186.5 L 38 186.5  A 9.5 9.5 0 0 1 28.5 177 L 28.5 162  Z " stroke-width="1" stroke="#a30014" fill="none" stroke-opacity="0.635294117647059" />
  </g>
</svg>