<?xml version="1.0" encoding="utf-8"?>
<svg version="1.1" xmlns:xlink="http://www.w3.org/1999/xlink" width="279px" height="35px" xmlns="http://www.w3.org/2000/svg">
  <g transform="matrix(1 0 0 1 -28 -202 )">
    <path d="M 29 212  A 9 9 0 0 1 38 203 L 297 203  A 9 9 0 0 1 306 212 L 306 227  A 9 9 0 0 1 297 236 L 38 236  A 9 9 0 0 1 29 227 L 29 212  Z " fill-rule="nonzero" fill="#ffffff" stroke="none" />
    <path d="M 28.5 212  A 9.5 9.5 0 0 1 38 202.5 L 297 202.5  A 9.5 9.5 0 0 1 306.5 212 L 306.5 227  A 9.5 9.5 0 0 1 297 236.5 L 38 236.5  A 9.5 9.5 0 0 1 28.5 227 L 28.5 212  Z " stroke-width="1" stroke="#b8741a" fill="none" stroke-opacity="0.635294117647059" />
  </g>
</svg>