<?xml version="1.0" encoding="utf-8"?>
<svg version="1.1" xmlns:xlink="http://www.w3.org/1999/xlink" width="223px" height="58px" xmlns="http://www.w3.org/2000/svg">
  <g transform="matrix(1 0 0 1 -77 -80 )">
    <path d="M 188.5 80  C 250.94 80  300 92.76  300 109  C 300 125.24  250.94 138  188.5 138  C 126.06 138  77 125.24  77 109  C 77 92.76  126.06 80  188.5 80  Z " fill-rule="nonzero" fill="#ec808d" stroke="none" fill-opacity="0.545098039215686" />
    <path d="M 188.5 80.5  C 250.66 80.5  299.5 93.04  299.5 109  C 299.5 124.96  250.66 137.5  188.5 137.5  C 126.34 137.5  77.5 124.96  77.5 109  C 77.5 93.04  126.34 80.5  188.5 80.5  Z " stroke-width="1" stroke="#797979" fill="none" />
  </g>
</svg>